# xmcd
#
# Track frame offsets:
#	150
#	32484
#	46354
#	68626
#	84178
#	100331
#	128674
#	147022
#	172862
#	187347
#	212977
#	236732
#	259111
#	292047
#	311781
#
# Disc length: 4469 seconds
#
# Revision: 0
# Processed by: cddbd v1.5.2PL0 Copyright (c) Steve Scherf et al.
# Submitted via: FairStars CD Ripper 1.90
#
DISCID=d811730f
DTITLE=Various Artist - The Most Popular Worship Songs 5
DYEAR=2009
DGENRE=Gospel
TTITLE0=MW Smith - Agnus Dei
TTITLE1=R Fragar - Great in Power
TTITLE2=R Critchley - Behold the Lamb of Glory Comes
TTITLE3=J Cooper - King of Kings, Majesty
TTITLE4=C Bancroft - Before the Throne of God
TTITLE5=R Mark, J Atkinson - Jesus, all for Jesus
TTITLE6=Mark Condon - Holy is Thy Name
TTITLE7=Tommy Walker - Never Gonna Stop
TTITLE8=Martin Smith - Shout to the North
TTITLE9=S Townsend - O my soul Arise
TTITLE10=S Townsend, K Jamieson - The King of Love
TTITLE11=M Smith - Lord You have my Heart
TTITLE12=J Houston, M Sampson - To the ends of the Earth
TTITLE13=M&B Redman - Blessed be Your Name
TTITLE14=C Tomlin, J Reeves - Famous One
EXTD=
EXTT0=
EXTT1=
EXTT2=
EXTT3=
EXTT4=
EXTT5=
EXTT6=
EXTT7=
EXTT8=
EXTT9=
EXTT10=
EXTT11=
EXTT12=
EXTT13=
EXTT14=
PLAYORDER=
